<!--Logo for Living Traditions by chinnan 2016-->
<svg version="1.1" id="Logo" xmlns="http://www.w3.org/2000/svg" xmlns:xlink="http://www.w3.org/1999/xlink" x="0px" y="0px"
   width="390px" height="390px" viewBox="0 0 390 390" style="enable-background:new 0 0 390 390;" xml:space="preserve">
<path id="shutter-6" style="fill:#949494;" d="M212.57,389.217c65.652-5.88,124.257-45.063,155.01-103.35H152.893l59.675,103.35
  H212.57z"/>
<path id="shutter-5" style="fill:#949494;" d="M195,390c2.51,0,5.04-0.05,7.57-0.146l-61.34-106.231l-45.984-79.656L35.578,307.302
  C72.156,359.138,131.538,390,195,390z"/>
<path id="shutter-4" style="fill:#949494;" d="M30.017,298.98L137.335,113.11H17.977C6.047,138.833,0,166.37,0,195
  C0,232.073,10.355,267.866,30.017,298.98z"/>
<path id="shutter-3" style="fill:#949494;" d="M177.44,0.782C111.78,6.657,53.18,45.84,22.42,104.132h214.688L177.44,0.782z"/>
<path id="shutter-2" style="fill:#949494;" d="M354.41,82.683C317.833,30.855,258.454,0,195,0c-2.507,0-5.033,0.05-7.56,0.146
  l107.313,185.866L354.41,82.683L354.41,82.683z"/>
<path id="shutter-1" style="fill:#949494;" d="M372.023,276.891C383.953,251.165,390,223.632,390,195
  c0-37.08-10.359-72.88-30.027-103.996L252.646,276.891H372.023z"/>
<path id="center" style="fill:#949494;" d="M192.607,190.85h-16.105v8.573h16.104l8.063,13.96l7.424-4.285l-8.065-13.963
  l8.053-13.94l-7.424-4.287L192.607,190.85z"/>
<path id="bottom-3" style="fill:#949494;" d="M220.13,229.96l-7.424,4.29l-7.065-12.234l7.422-4.287L220.13,229.96z"/>
<path id="bottom-2" style="fill:#949494;" d="M232.178,250.792l-7.423,4.286l-7.063-12.235l7.424-4.284L232.178,250.792z"/>
<path id="bottom-1" style="fill:#949494;" d="M229.715,263.71l7.967,13.787h4.946l2.476-4.287l-7.961-13.787L229.715,263.71z"/>
<path id="right-3" style="fill:#949494;" d="M213.046,172.58l-7.424-4.284l7.065-12.24l7.424,4.284L213.046,172.58z"/>
<path id="right-2" style="fill:#949494;" d="M217.67,147.445l7.422,4.286l7.063-12.244l-7.423-4.286L217.67,147.445z"/>
<path id="right-1" style="fill:#949494;" d="M237.84,112.502l-8.136,14.088l7.432,4.288l8.044-13.942l-2.553-4.434H237.84z"/>
<path id="left-3" style="fill:#949494;" d="M152.428,190.85h14.128v8.573h-14.128V190.85z"/>
<path id="left-2" style="fill:#949494;" d="M128.347,190.85h14.128v8.573h-14.128V190.85z"/>
<path id="left-1" style="fill:#949494;" d="M118.4,190.85h-16.26L99.743,195l2.553,4.424h16.106L118.4,190.85z"/>
</svg>
